<?xml version="1.0" standalone="no"?>
<!DOCTYPE svg PUBLIC "-//W3C//DTD SVG 20010904//EN"
 "http://www.w3.org/TR/2001/REC-SVG-20010904/DTD/svg10.dtd">
<svg version="1.0" xmlns="http://www.w3.org/2000/svg"
 width="289.000000pt" height="289.000000pt" viewBox="0 0 289.000000 289.000000"
 preserveAspectRatio="xMidYMid meet">

<g transform="translate(0.000000,289.000000) scale(0.100000,-0.100000)"
fill="#000000" stroke="none">
<path d="M150 2398 c0 -14 47 -79 121 -168 67 -80 130 -158 140 -175 18 -28
19 -61 19 -648 0 -511 -2 -623 -14 -645 -8 -15 -77 -104 -155 -197 -104 -126
-141 -177 -141 -197 l0 -28 390 0 390 0 0 28 c0 20 -37 71 -141 197 -78 93
-147 182 -155 197 -12 23 -14 115 -12 541 l3 513 337 -735 337 -736 43 0 42 0
288 730 c158 402 290 735 292 740 2 6 5 -262 5 -594 l1 -604 -120 -122 c-66
-66 -120 -129 -120 -138 0 -16 37 -17 520 -17 l520 0 0 24 c0 17 -31 53 -115
133 l-115 109 0 772 0 773 115 111 c83 80 115 117 115 134 l0 24 -364 0 -364
0 -254 -635 c-139 -349 -255 -635 -258 -635 -3 0 -136 286 -295 635 l-289 635
-383 0 -383 0 0 -22z"/>
</g>
</svg>
